<?xml version="1.0" encoding="UTF-8" standalone="no"?>
<!-- Created with Inkscape (http://www.inkscape.org/) -->

<svg
   xmlns:dc="http://purl.org/dc/elements/1.1/"
   xmlns:cc="http://creativecommons.org/ns#"
   xmlns:rdf="http://www.w3.org/1999/02/22-rdf-syntax-ns#"
   xmlns:svg="http://www.w3.org/2000/svg"
   xmlns="http://www.w3.org/2000/svg"
   version="1.1"
   width="152"
   height="27"
   id="svg2985"
   xml:space="preserve"><metadata
     id="metadata2991"><rdf:RDF><cc:Work
         rdf:about=""><dc:format>image/svg+xml</dc:format><dc:type
           rdf:resource="http://purl.org/dc/dcmitype/StillImage" /><dc:title></dc:title></cc:Work></rdf:RDF></metadata><defs
     id="defs2989"><clipPath
       id="clipPath2999"><path
         d="m 0,595.28 841.89,0 L 841.89,0 0,0 0,595.28 z"
         id="path3001" /></clipPath></defs><g
     transform="matrix(1.25,0,0,-1.25,-179.94238,352.31975)"
     id="g2993"><g
       id="g2995"><g
         clip-path="url(#clipPath2999)"
         id="g2997"><path
           d="M 841.89,0 0,0 l 0,595.28 841.89,0 0,-595.28 z"
           id="path3003"
           style="fill:none;stroke:#373535;stroke-width:1;stroke-linecap:butt;stroke-linejoin:miter;stroke-miterlimit:4;stroke-opacity:1;stroke-dasharray:none" /><g
           transform="matrix(0.21717792,0,0,0.21579801,185.77503,277.89224)"
           id="g3005"><path
             d="m 0,0 c 0,-10.146 -8.224,-18.368 -18.37,-18.368 -10.139,0 -18.363,8.222 -18.363,18.368 0,10.145 8.224,18.367 18.363,18.367 C -8.224,18.367 0,10.145 0,0"
             id="path3007"
             style="fill:#333333;fill-opacity:1;fill-rule:nonzero;stroke:none" /></g><g
           transform="matrix(0.21717792,0,0,0.21579801,181.78545,273.19464)"
           id="g3009"><path
             d="M 0,0 C -11.81,0 -22.468,-7.081 -30.026,-18.441 L 0,-59.865 l 0.509,0 29.762,41.052 C 22.699,-7.235 11.939,0 0,0"
             id="path3011"
             style="fill:#333333;fill-opacity:1;fill-rule:nonzero;stroke:none" /></g><g
           transform="matrix(0.21717792,0,0,0.21579801,151.14967,260.36413)"
           id="g3013"><path
             d="m 0,0 c -4.149,0 -7.883,0.405 -11.202,1.215 -3.319,0.809 -6.244,1.975 -8.773,3.497 -2.529,1.52 -4.682,3.378 -6.46,5.571 -1.778,2.194 -3.201,4.672 -4.268,7.439 -0.869,2.213 -1.492,4.662 -1.867,7.349 -0.376,2.687 -0.563,5.691 -0.563,9.01 l 0,46.706 14.522,0 0,-45.402 c 0,-5.612 0.671,-9.997 2.015,-13.158 1.501,-3.518 3.694,-6.056 6.579,-7.617 2.884,-1.561 6.283,-2.341 10.195,-2.341 3.912,0 7.309,0.78 10.195,2.341 2.883,1.561 5.076,4.099 6.579,7.617 1.342,3.161 2.015,7.546 2.015,13.158 l 0,45.402 14.521,0 0,-46.706 c 0,-3.319 -0.188,-6.323 -0.563,-9.01 C 32.549,22.384 31.927,19.935 31.058,17.722 29.991,14.955 28.559,12.477 26.761,10.283 24.962,8.09 22.77,6.232 20.182,4.712 17.593,3.19 14.62,2.024 11.261,1.215 7.902,0.405 4.149,0 0,0"
             id="path3015"
             style="fill:#ffffff;fill-opacity:1;fill-rule:nonzero;stroke:none" /></g><g
           transform="matrix(0.21717792,0,0,0.21579801,164.89743,271.35118)"
           id="g3017"><path
             d="m 0,0 0.237,0 c 0.83,1.186 1.876,2.351 3.141,3.497 1.265,1.146 2.706,2.153 4.327,3.023 1.62,0.869 3.408,1.571 5.364,2.104 1.956,0.534 4.04,0.8 6.253,0.8 2.095,0 4.12,-0.237 6.076,-0.711 1.956,-0.474 3.743,-1.215 5.364,-2.223 1.619,-1.007 3.052,-2.311 4.297,-3.911 1.245,-1.601 2.223,-3.508 2.934,-5.72 0.394,-1.226 0.661,-2.559 0.8,-4.001 C 38.931,-8.584 39,-10.253 39,-12.151 l 0,-37.281 -14.047,0 0,35.089 c 0,1.541 -0.059,2.864 -0.178,3.97 -0.118,1.107 -0.336,2.076 -0.651,2.905 -0.712,1.817 -1.789,3.121 -3.231,3.912 -1.443,0.79 -3.191,1.185 -5.246,1.185 -2.726,0 -5.344,-0.642 -7.853,-1.926 -2.51,-1.285 -4.732,-3.152 -6.668,-5.601 l 0,-39.534 -14.047,0 0,57.434 11.617,0 L 0,0 z"
             id="path3019"
             style="fill:#ffffff;fill-opacity:1;fill-rule:nonzero;stroke:none" /></g><g
           transform="matrix(0.21717792,0,0,0.21579801,198.99055,266.76621)"
           id="g3021"><path
             d="m 0,0 c 0,3.042 -0.356,5.729 -1.067,8.061 -0.711,2.331 -1.7,4.287 -2.964,5.868 -1.265,1.58 -2.785,2.765 -4.564,3.556 -1.778,0.79 -3.714,1.185 -5.808,1.185 -2.055,0 -3.962,-0.395 -5.72,-1.185 -1.758,-0.791 -3.27,-1.976 -4.534,-3.556 -1.265,-1.581 -2.252,-3.537 -2.964,-5.868 -0.711,-2.332 -1.067,-5.019 -1.067,-8.061 0,-3.043 0.356,-5.73 1.067,-8.062 0.712,-2.331 1.709,-4.277 2.994,-5.837 1.283,-1.562 2.805,-2.747 4.564,-3.557 1.757,-0.81 3.684,-1.215 5.778,-1.215 2.095,0 4.011,0.405 5.75,1.215 1.738,0.81 3.239,1.995 4.504,3.557 1.264,1.56 2.253,3.506 2.964,5.837 C -0.356,-5.73 0,-3.043 0,0 m 14.521,0 c 0,-4.505 -0.672,-8.615 -2.015,-12.329 -1.344,-3.714 -3.27,-6.896 -5.779,-9.542 -2.51,-2.649 -5.542,-4.692 -9.098,-6.135 -3.556,-1.442 -7.527,-2.163 -11.914,-2.163 -4.504,0 -8.545,0.721 -12.121,2.163 -3.576,1.443 -6.608,3.486 -9.098,6.135 -2.489,2.646 -4.396,5.828 -5.72,9.542 -1.324,3.714 -1.985,7.824 -1.985,12.329 0,4.505 0.671,8.613 2.015,12.328 1.343,3.714 3.269,6.895 5.779,9.543 2.509,2.647 5.542,4.692 9.098,6.134 3.557,1.442 7.528,2.164 11.914,2.164 4.505,0 8.544,-0.722 12.121,-2.164 3.575,-1.442 6.609,-3.487 9.098,-6.134 2.489,-2.648 4.395,-5.829 5.72,-9.543 C 13.859,8.613 14.521,4.505 14.521,0"
             id="path3023"
             style="fill:#ffffff;fill-opacity:1;fill-rule:nonzero;stroke:none" /></g><g
           transform="matrix(0.21717792,0,0,0.21579801,207.65369,271.24285)"
           id="g3025"><path
             d="m 0,0 0.237,0 c 0.83,1.186 1.877,2.351 3.142,3.497 1.264,1.146 2.706,2.153 4.327,3.023 1.619,0.869 3.408,1.571 5.363,2.104 1.956,0.534 4.04,0.8 6.254,0.8 2.094,0 4.119,-0.237 6.075,-0.711 1.956,-0.474 3.744,-1.215 5.365,-2.223 1.619,-1.007 3.051,-2.311 4.297,-3.911 1.244,-1.601 2.222,-3.508 2.933,-5.72 0.395,-1.226 0.661,-2.559 0.801,-4.001 0.138,-1.442 0.207,-3.111 0.207,-5.009 l 0,-37.281 -14.047,0 0,35.089 c 0,1.541 -0.059,2.864 -0.179,3.97 -0.118,1.107 -0.336,2.076 -0.651,2.905 -0.711,1.817 -1.788,3.121 -3.23,3.912 -1.443,0.79 -3.192,1.185 -5.246,1.185 -2.726,0 -5.344,-0.642 -7.853,-1.926 -2.51,-1.285 -4.732,-3.152 -6.668,-5.601 l 0,-39.534 -14.048,0 0,57.434 11.617,0 L 0,0 z"
             id="path3027"
             style="fill:#ffffff;fill-opacity:1;fill-rule:nonzero;stroke:none" /></g><g
           transform="matrix(0.21717792,0,0,0.21579801,228.32697,265.48702)"
           id="g3029"><path
             d="m 0,0 c 0,2.016 -0.495,3.646 -1.482,4.891 -0.989,1.244 -2.332,2.261 -4.031,3.051 -1.699,0.79 -3.606,1.433 -5.719,1.927 -2.115,0.493 -4.337,0.978 -6.668,1.452 -3.082,0.671 -6.027,1.472 -8.831,2.401 -2.807,0.927 -5.276,2.213 -7.41,3.852 -2.133,1.64 -3.833,3.724 -5.097,6.254 -1.265,2.528 -1.897,5.69 -1.897,9.483 0,4.188 0.731,7.833 2.194,10.936 1.461,3.101 3.446,5.669 5.956,7.705 2.508,2.034 5.453,3.556 8.832,4.564 3.378,1.007 7.18,1.511 11.409,1.511 4.228,0 8.476,-0.415 12.744,-1.245 4.268,-0.829 7.942,-1.896 11.024,-3.2 l 0,-12.447 c -4.11,1.619 -8.051,2.795 -11.825,3.526 -3.773,0.731 -7.32,1.097 -10.638,1.097 -4.783,0 -8.467,-0.87 -11.055,-2.608 -2.588,-1.739 -3.882,-4.347 -3.882,-7.824 0,-2.015 0.424,-3.675 1.274,-4.979 0.849,-1.304 2.005,-2.381 3.467,-3.23 1.462,-0.85 3.142,-1.532 5.038,-2.045 1.897,-0.514 3.912,-0.988 6.046,-1.422 3.359,-0.712 6.57,-1.532 9.632,-2.461 3.062,-0.928 5.778,-2.222 8.149,-3.881 2.372,-1.66 4.248,-3.824 5.631,-6.491 1.383,-2.667 2.075,-6.075 2.075,-10.224 0,-4.268 -0.79,-7.962 -2.371,-11.083 -1.581,-3.122 -3.823,-5.7 -6.727,-7.736 -2.904,-2.035 -6.431,-3.546 -10.58,-4.534 -4.15,-0.987 -8.694,-1.481 -13.633,-1.481 -4.307,0 -8.545,0.425 -12.713,1.274 -4.17,0.849 -7.637,2.045 -10.402,3.586 l 0,12.269 c 3.912,-1.7 7.724,-2.934 11.439,-3.704 3.714,-0.771 7.547,-1.157 11.498,-1.157 2.292,0 4.544,0.188 6.757,0.564 2.213,0.375 4.198,1.016 5.957,1.926 1.758,0.909 3.171,2.143 4.238,3.705 C -0.534,-4.218 0,-2.292 0,0"
             id="path3031"
             style="fill:#ffffff;fill-opacity:1;fill-rule:nonzero;stroke:none" /></g><g
           transform="matrix(0.21717792,0,0,0.21579801,243.42614,266.76621)"
           id="g3033"><path
             d="m 0,0 c 0,3.042 -0.355,5.729 -1.066,8.061 -0.712,2.331 -1.7,4.287 -2.964,5.868 -1.265,1.58 -2.785,2.765 -4.564,3.556 -1.778,0.79 -3.715,1.185 -5.808,1.185 -2.056,0 -3.962,-0.395 -5.72,-1.185 -1.759,-0.791 -3.271,-1.976 -4.534,-3.556 -1.266,-1.581 -2.253,-3.537 -2.964,-5.868 -0.711,-2.332 -1.068,-5.019 -1.068,-8.061 0,-3.043 0.357,-5.73 1.068,-8.062 0.711,-2.331 1.709,-4.277 2.993,-5.837 1.283,-1.562 2.806,-2.747 4.564,-3.557 1.757,-0.81 3.684,-1.215 5.779,-1.215 2.094,0 4.01,0.405 5.749,1.215 1.738,0.81 3.24,1.995 4.505,3.557 1.264,1.56 2.252,3.506 2.964,5.837 C -0.355,-5.73 0,-3.043 0,0 m 14.521,0 c 0,-4.505 -0.671,-8.615 -2.014,-12.329 -1.344,-3.714 -3.271,-6.896 -5.779,-9.542 -2.51,-2.649 -5.542,-4.692 -9.098,-6.135 -3.557,-1.442 -7.528,-2.163 -11.914,-2.163 -4.505,0 -8.545,0.721 -12.121,2.163 -3.576,1.443 -6.609,3.486 -9.098,6.135 -2.489,2.646 -4.396,5.828 -5.72,9.542 -1.324,3.714 -1.985,7.824 -1.985,12.329 0,4.505 0.671,8.613 2.015,12.328 1.342,3.714 3.269,6.895 5.779,9.543 2.509,2.647 5.542,4.692 9.098,6.134 3.556,1.442 7.527,2.164 11.914,2.164 4.504,0 8.544,-0.722 12.121,-2.164 3.575,-1.442 6.608,-3.487 9.097,-6.134 2.49,-2.648 4.396,-5.829 5.72,-9.543 C 13.859,8.613 14.521,4.505 14.521,0"
             id="path3035"
             style="fill:#ffffff;fill-opacity:1;fill-rule:nonzero;stroke:none" /></g><g
           transform="matrix(0.21717792,0,0,0.21579801,257.0967,276.64054)"
           id="g3037"><path
             d="m 0,0 c -1.541,0.395 -3.132,0.72 -4.771,0.978 -1.64,0.256 -3.191,0.385 -4.653,0.385 -1.581,0 -2.984,-0.188 -4.208,-0.563 -1.225,-0.376 -2.263,-0.998 -3.112,-1.867 -0.85,-0.87 -1.491,-1.996 -1.926,-3.378 -0.435,-1.384 -0.652,-3.063 -0.652,-5.038 l 0,-7.528 15.944,0 0,-11.558 -15.944,0 0,-45.876 -14.047,0 0,45.876 -9.721,0 0,11.558 9.721,0 0,6.816 c 0,4.031 0.562,7.498 1.688,10.403 1.127,2.904 2.698,5.294 4.713,7.171 2.015,1.876 4.386,3.26 7.113,4.149 2.726,0.889 5.69,1.334 8.89,1.334 1.976,0 3.942,-0.169 5.898,-0.504 C -3.111,12.022 -1.422,11.617 0,11.143 L 0,0 z"
             id="path3039"
             style="fill:#ffffff;fill-opacity:1;fill-rule:nonzero;stroke:none" /></g><g
           transform="matrix(0.21717792,0,0,0.21579801,265.55391,260.58837)"
           id="g3041"><path
             d="m 0,0 c -1.581,-0.475 -3.468,-0.85 -5.66,-1.126 -2.194,-0.276 -4.238,-0.415 -6.135,-0.415 -4.821,0 -8.763,0.78 -11.825,2.341 -3.063,1.56 -5.226,3.803 -6.49,6.727 -0.91,2.094 -1.363,4.939 -1.363,8.536 l 0,29.753 -10.728,0 0,11.559 10.728,0 0,16.062 14.047,0 0,-16.062 16.596,0 0,-11.559 -16.596,0 0,-27.917 c 0,-2.212 0.335,-3.852 1.008,-4.919 1.186,-1.818 3.536,-2.726 7.053,-2.726 1.62,0 3.23,0.128 4.831,0.385 1.6,0.257 3.111,0.583 4.534,0.978 L 0,0 z"
             id="path3043"
             style="fill:#ffffff;fill-opacity:1;fill-rule:nonzero;stroke:none" /></g></g></g></g></svg>