<?xml-stylesheet href="styles.css" type="text/css"?>
<svg xmlns="http://www.w3.org/2000/svg" xmlns:xlink="http://www.w3.org/1999/xlink" version="1.1" id="Layer_1" x="0px" y="0px" viewBox="0 0 100 100" enable-background="new 0 0 100 100" xml:space="preserve">
<polygon points="68.907,54.873 63.26,54.873 63.26,60.635 68.506,60.635 "/>
<polygon points="69.509,46.503 63.26,46.503 63.26,53.239 69.021,53.239 "/>
<polygon points="61.626,69.663 57.04,69.663 57.44,75.424 61.626,75.424 "/>
<path d="M61.368,31.168l-0.459,0.172h-2.006l0.201,0.602l-2.408,0.946v3.125l1.318,1.348l2.034-0.631l-0.114,2.522h-0.028  l1.835,1.806l2.665-2.637l-1.089-2.523l2.493-3.983l-0.945-0.975v1.348l-0.487-1.806l-1.204-1.232  c-0.058,0.144-0.114,0.287-0.172,0.401c-0.173,0.286-0.372,0.573-0.631,0.86C62.085,30.795,61.741,31.025,61.368,31.168z"/>
<polygon points="68.391,62.268 63.26,62.268 63.26,68.03 67.989,68.03 "/>
<polygon points="61.626,82.848 61.626,77.059 57.556,77.059 57.957,82.848 "/>
<polygon points="63.26,82.848 66.929,82.848 67.358,77.059 63.26,77.059 "/>
<polygon points="67.874,69.663 63.26,69.663 63.26,75.424 67.473,75.424 "/>
<path d="M34.023,22.712c1.834,0,3.382-0.716,4.671-2.121c1.348-1.405,2.007-2.952,2.035-4.672c-0.028-1.949-0.716-3.555-2.092-4.873  v0.029c-1.348-1.375-2.924-2.064-4.729-2.064c-1.777,0-3.324,0.688-4.615,2.121c-1.318,1.376-1.978,2.952-1.948,4.787  c-0.029,1.806,0.658,3.382,2.006,4.73C30.641,22.024,32.217,22.712,34.023,22.712z"/>
<polygon points="61.626,62.268 56.495,62.268 56.896,68.03 61.626,68.03 "/>
<polygon points="54.345,54.873 48.412,54.873 49.101,60.635 54.746,60.635 "/>
<polygon points="55.922,77.059 50.992,77.059 51.68,82.848 56.323,82.848 "/>
<polygon points="54.861,62.268 49.272,62.268 49.96,68.03 55.291,68.03 "/>
<polygon points="68.591,82.848 73.607,82.848 74.296,77.059 68.993,77.059 "/>
<polygon points="52.625,90.989 72.661,90.989 73.436,84.454 51.852,84.454 "/>
<polygon points="55.378,69.663 50.132,69.663 50.819,75.424 55.807,75.424 "/>
<polygon points="61.626,46.503 55.405,46.503 55.864,53.239 61.626,53.239 "/>
<polygon points="53.772,46.503 47.438,46.503 48.212,53.239 54.23,53.239 "/>
<polygon points="61.626,54.873 55.979,54.873 56.381,60.635 61.626,60.635 "/>
<path d="M60.709,29.878c0.401-0.144,0.716-0.373,1.003-0.659V29.19c0.287-0.287,0.487-0.574,0.631-0.832  c0.201-0.43,0.315-0.888,0.344-1.462l-0.028-0.401c-0.087-0.716-0.401-1.347-0.946-1.892c-0.287-0.287-0.602-0.516-0.917-0.659  c-0.172-0.057-0.287-0.115-0.431-0.144l-0.544-0.114H28.577c-1.061,0.028-2.064,0.172-3.011,0.401  c-0.859,0.229-1.72,0.573-2.55,1.032c-0.459,0.258-0.975,0.602-1.549,1.089c-0.602,0.458-1.117,1.031-1.604,1.663  c-0.918,1.375-1.376,3.009-1.376,4.93l0.028,21.641l0.144,0.458c0.172,0.373,0.401,0.717,0.659,1.003h0.028  c0.287,0.258,0.574,0.458,0.86,0.602c0.401,0.201,0.889,0.315,1.433,0.315h0.402c0.744-0.086,1.347-0.401,1.892-0.917  c0.401-0.401,0.688-0.86,0.831-1.375l0.115-0.631V35.525c0-0.058,0-0.086,0.057-0.144c0.029-0.028,0.058-0.028,0.114-0.028h0.746  c0.057,0,0.085,0,0.114,0.028c0.028,0.057,0.057,0.086,0.057,0.144v51.193c-0.028,1.232,0.373,2.235,1.118,3.01l0.029,0.028  c0.745,0.803,1.69,1.233,2.78,1.233c1.003,0,1.892-0.43,2.723-1.261c0.717-0.746,1.09-1.749,1.09-3.01V56.592  c-0.029-0.057,0-0.085,0.028-0.114c0.029-0.058,0.086-0.058,0.114-0.058h0.602c0.059,0,0.087,0,0.115,0.058  c0.028,0.029,0.058,0.057,0.058,0.114v30.126c0,2.837,1.376,4.271,4.128,4.271c1.347,0,2.321-0.373,2.98-1.089  c0.631-0.688,0.945-1.691,0.975-3.009l0.029-56.897l17.513,0.028L60.709,29.878z"/>
<polygon points="69.107,75.424 74.468,75.424 75.155,69.663 69.509,69.663 "/>
<polygon points="69.623,68.03 75.327,68.03 76.015,62.268 70.024,62.268 "/>
<polygon points="70.139,60.635 76.216,60.635 76.875,54.873 70.54,54.873 "/>
<polygon points="70.655,53.239 77.075,53.239 77.878,46.503 71.143,46.503 "/>
</svg>
